<?xml version="1.0" encoding="iso-8859-1"?>
<!-- Generator: Adobe Illustrator 19.0.0, SVG Export Plug-In . SVG Version: 6.00 Build 0)  -->
<svg version="1.1" id="Layer_1" xmlns="http://www.w3.org/2000/svg" xmlns:xlink="http://www.w3.org/1999/xlink" x="0px" y="0px"
	 viewBox="0 0 512.003 512.003" style="enable-background:new 0 0 512.003 512.003;" xml:space="preserve">
<circle style="fill:#FDDF6D;" cx="256.001" cy="256.001" r="256.001"/>
<path style="fill:#FCC56B;" d="M310.859,474.208c-141.385,0-256-114.615-256-256c0-75.537,32.722-143.422,84.757-190.281
	C56.738,70.303,0,156.525,0,256c0,141.385,114.615,256,256,256c65.849,0,125.883-24.87,171.243-65.718
	C392.325,464.135,352.77,474.208,310.859,474.208z"/>
<g>
	<path style="fill:#7F184C;" d="M446.854,204.611h-85.15c-5.753,0-10.414-4.663-10.414-10.414s4.662-10.414,10.414-10.414h85.15
		c5.753,0,10.414,4.663,10.414,10.414S452.607,204.611,446.854,204.611z"/>
	<path style="fill:#7F184C;" d="M251.818,204.611h-85.15c-5.753,0-10.414-4.663-10.414-10.414s4.662-10.414,10.414-10.414h85.15
		c5.753,0,10.414,4.663,10.414,10.414S257.571,204.611,251.818,204.611z"/>
	<path style="fill:#7F184C;" d="M404.28,359.206H216.335c-5.753,0-10.414-4.663-10.414-10.414s4.661-10.414,10.414-10.414H404.28
		c5.753,0,10.414,4.663,10.414,10.414S410.033,359.206,404.28,359.206z"/>
</g>
<ellipse transform="matrix(0.2723 -0.9622 0.9622 0.2723 131.1745 341.1942)" style="fill:#FCEB88;" cx="291.163" cy="83.873" rx="29.854" ry="53.46"/>
<g>
</g>
<g>
</g>
<g>
</g>
<g>
</g>
<g>
</g>
<g>
</g>
<g>
</g>
<g>
</g>
<g>
</g>
<g>
</g>
<g>
</g>
<g>
</g>
<g>
</g>
<g>
</g>
<g>
</g>
</svg>
