<?xml version="1.0" encoding="iso-8859-1"?>
<!-- Generator: Adobe Illustrator 19.0.0, SVG Export Plug-In . SVG Version: 6.00 Build 0)  -->
<svg version="1.1" id="Layer_1" xmlns="http://www.w3.org/2000/svg" xmlns:xlink="http://www.w3.org/1999/xlink" x="0px" y="0px"
	 viewBox="0 0 512.003 512.003" style="enable-background:new 0 0 512.003 512.003;" xml:space="preserve">
<circle style="fill:#FDDF6D;" cx="256.001" cy="256.001" r="256.001"/>
<path style="fill:#FCC56B;" d="M310.859,474.208c-141.385,0-256-114.615-256-256c0-75.537,32.722-143.422,84.757-190.281
	C56.738,70.303,0,156.525,0,256c0,141.385,114.615,256,256,256c65.849,0,125.883-24.87,171.243-65.718
	C392.325,464.135,352.77,474.208,310.859,474.208z"/>
<g>
	<path style="fill:#FFFFFF;" d="M382.337,205.748c0,19.207,15.57,34.776,34.776,34.776c19.207,0,34.776-15.57,34.776-34.776H334.19"
		/>
	<path style="fill:#FFFFFF;" d="M204.457,205.748c0,19.207,15.57,34.776,34.776,34.776s34.776-15.57,34.776-34.776H156.31"/>
</g>
<g>
	<path style="fill:#F9A880;" d="M145.987,276.28c-19.011,0-34.423,15.412-34.423,34.425h68.848
		C180.41,291.694,164.998,276.28,145.987,276.28z"/>
	<path style="fill:#F9A880;" d="M446.251,271.669c-19.011,0-34.423,15.412-34.423,34.425h68.848
		C480.676,287.081,465.264,271.669,446.251,271.669z"/>
</g>
<g>
	<path style="fill:#7F184C;" d="M451.889,195.335H350.424c-5.752,0-10.414,4.663-10.414,10.414c0,5.752,4.663,10.414,10.414,10.414
		h22.709c4.716,19.914,22.645,34.776,43.98,34.776c24.918,0,45.19-20.272,45.19-45.19
		C462.304,199.997,457.641,195.335,451.889,195.335z M417.113,230.11c-9.709,0-18.11-5.71-22.022-13.947h44.045
		C435.223,224.401,426.822,230.11,417.113,230.11z"/>
	<path style="fill:#7F184C;" d="M284.423,205.75c0-5.752-4.663-10.414-10.414-10.414h-96.464c-5.752,0-10.414,4.663-10.414,10.414
		c0,5.752,4.663,10.414,10.414,10.414h17.709c4.716,19.914,22.645,34.776,43.98,34.776
		C264.151,250.939,284.423,230.666,284.423,205.75z M217.211,216.164h44.043c-3.912,8.237-12.313,13.947-22.022,13.947
		C229.524,230.111,221.123,224.401,217.211,216.164z"/>
	<path style="fill:#7F184C;" d="M315.136,386.053h-84.825c-5.752,0-10.414-4.663-10.414-10.414s4.663-10.414,10.414-10.414h84.825
		c28.033,0,54.387-10.916,74.211-30.738c4.067-4.067,10.662-4.067,14.727,0c4.067,4.067,4.067,10.662,0,14.727
		C380.318,372.97,348.733,386.053,315.136,386.053z"/>
</g>
<ellipse transform="matrix(0.2723 -0.9622 0.9622 0.2723 152.5988 358.8056)" style="fill:#FCEB88;" cx="313.518" cy="78.514" rx="29.854" ry="53.46"/>
<g>
</g>
<g>
</g>
<g>
</g>
<g>
</g>
<g>
</g>
<g>
</g>
<g>
</g>
<g>
</g>
<g>
</g>
<g>
</g>
<g>
</g>
<g>
</g>
<g>
</g>
<g>
</g>
<g>
</g>
</svg>
